<?xml version="1.0" encoding="utf-8"?>
<!-- Generator: Adobe Illustrator 23.0.3, SVG Export Plug-In . SVG Version: 6.00 Build 0)  -->
<svg version="1.1" id="Icons" xmlns="http://www.w3.org/2000/svg" xmlns:xlink="http://www.w3.org/1999/xlink" x="0px" y="0px"
	 viewBox="0 0 32 32" style="enable-background:new 0 0 32 32;" xml:space="preserve">
<style type="text/css">
	.st0{fill:none;stroke:#000000;stroke-width:2;stroke-miterlimit:10;}
	.st1{fill:none;stroke:#000000;stroke-width:2;stroke-linejoin:round;stroke-miterlimit:10;}
	.st2{fill:none;stroke:#000000;stroke-width:2;stroke-linecap:round;stroke-linejoin:round;stroke-miterlimit:10;}
	.st3{fill:none;stroke:#000000;stroke-width:2;stroke-linecap:round;stroke-miterlimit:10;}
	.st4{fill:none;stroke:#000000;stroke-width:2;stroke-linejoin:round;stroke-miterlimit:10;stroke-dasharray:3;}
</style>
<line class="st1" x1="16" y1="2" x2="16" y2="7"/>
<line class="st1" x1="10.6" y1="3.1" x2="12.6" y2="7.7"/>
<line class="st1" x1="6.1" y1="6.1" x2="9.6" y2="9.6"/>
<line class="st1" x1="3.1" y1="10.6" x2="7.7" y2="12.6"/>
<line class="st1" x1="2" y1="16" x2="7" y2="16"/>
<line class="st1" x1="3.1" y1="21.4" x2="7.7" y2="19.4"/>
<line class="st1" x1="6.1" y1="25.9" x2="9.6" y2="22.4"/>
<line class="st1" x1="10.6" y1="28.9" x2="12.6" y2="24.3"/>
<line class="st1" x1="16" y1="30" x2="16" y2="25"/>
<line class="st1" x1="21.4" y1="28.9" x2="19.4" y2="24.3"/>
<line class="st1" x1="25.9" y1="25.9" x2="22.4" y2="22.4"/>
<line class="st1" x1="28.9" y1="21.4" x2="24.3" y2="19.4"/>
<line class="st1" x1="30" y1="16" x2="25" y2="16"/>
<line class="st1" x1="28.9" y1="10.6" x2="24.3" y2="12.6"/>
<line class="st1" x1="25.9" y1="6.1" x2="22.4" y2="9.6"/>
<line class="st1" x1="21.4" y1="3.1" x2="19.4" y2="7.7"/>
</svg>
