<?xml version="1.0" encoding="utf-8"?>
<!-- Generator: Adobe Illustrator 23.0.3, SVG Export Plug-In . SVG Version: 6.00 Build 0)  -->
<svg version="1.1" id="Icons" xmlns="http://www.w3.org/2000/svg" xmlns:xlink="http://www.w3.org/1999/xlink" x="0px" y="0px"
	 viewBox="0 0 32 32" style="enable-background:new 0 0 32 32;" xml:space="preserve">
<style type="text/css">
	.st0{fill:none;stroke:#000000;stroke-width:2;stroke-miterlimit:10;}
	.st1{fill:none;stroke:#000000;stroke-width:2;stroke-linejoin:round;stroke-miterlimit:10;}
	.st2{fill:none;stroke:#000000;stroke-width:2;stroke-linecap:round;stroke-linejoin:round;stroke-miterlimit:10;}
	.st3{fill:none;stroke:#000000;stroke-width:2;stroke-linecap:round;stroke-miterlimit:10;}
	.st4{fill:none;stroke:#000000;stroke-width:2;stroke-linejoin:round;stroke-miterlimit:10;stroke-dasharray:3;}
</style>
<path class="st1" d="M25.9,15c-0.1-1.5-0.6-2.9-1.3-4.2c-0.9-1.7-0.6-3.9,0.8-5.3l0,0c-1.7-1.7-4.3-1.7-6,0
	c-0.1,0.1-0.2,0.2-0.3,0.3C17.9,5.3,16.5,5,15,5c-3.7,0-7,1.8-9,4.6c-1.3,1.8-2,4-2,6.4c0,2,0.6,4,1.5,5.6L10,29h4l-0.3-2.1
	C14.1,27,14.5,27,15,27c0.8,0,1.6,0,2.3-0.1L17,29h4l2.2-3.3c2.4-0.9,4.5-2.1,5.8-3.6V15H25.9z"/>
<path class="st1" d="M6,22c0,0.8-0.7,1.5-1.5,1.5S3,22.8,3,22"/>
<path class="st1" d="M9.1,11.2C10.8,9.2,13.2,8,16,8"/>
</svg>
