<?xml version="1.0" encoding="utf-8"?>
<!-- Generator: Adobe Illustrator 23.0.3, SVG Export Plug-In . SVG Version: 6.00 Build 0)  -->
<svg version="1.1" id="Icons" xmlns="http://www.w3.org/2000/svg" xmlns:xlink="http://www.w3.org/1999/xlink" x="0px" y="0px"
	 viewBox="0 0 32 32" style="enable-background:new 0 0 32 32;" xml:space="preserve">
<style type="text/css">
	.st0{fill:none;stroke:#000000;stroke-width:2;stroke-miterlimit:10;}
	.st1{fill:none;stroke:#000000;stroke-width:2;stroke-linejoin:round;stroke-miterlimit:10;}
	.st2{fill:none;stroke:#000000;stroke-width:2;stroke-linecap:round;stroke-linejoin:round;stroke-miterlimit:10;}
	.st3{fill:none;stroke:#000000;stroke-width:2;stroke-linecap:round;stroke-miterlimit:10;}
	.st4{fill:none;stroke:#000000;stroke-width:2;stroke-linejoin:round;stroke-miterlimit:10;stroke-dasharray:3;}
</style>
<path class="st1" d="M21.7,18.8l-2.9,2.9c-2.3,2.3-6.1,2.3-8.5,0l0,0c-2.3-2.3-2.3-6.1,0-8.5l2.9-2.9c2.3-2.3,6.1-2.3,8.5,0l0,0
	C24.1,12.7,24.1,16.5,21.7,18.8z"/>
<path class="st1" d="M4,21.1L4,21.1c1.3,3.1,3.8,5.6,6.9,6.9l0,0l-0.6-6.3L4,21.1z"/>
<path class="st1" d="M28,10.9L28,10.9c-1.3-3.1-3.8-5.6-6.9-6.9l0,0l0.6,6.3L28,10.9z"/>
<line class="st1" x1="16" y1="8.7" x2="16" y2="23.3"/>
<line class="st1" x1="20" y1="9.1" x2="20" y2="20.6"/>
<line class="st1" x1="12" y1="11.5" x2="12" y2="22.9"/>
</svg>
