<?xml version="1.0" encoding="utf-8"?>
<!-- Generator: Adobe Illustrator 23.0.3, SVG Export Plug-In . SVG Version: 6.00 Build 0)  -->
<svg version="1.1" id="Icons" xmlns="http://www.w3.org/2000/svg" xmlns:xlink="http://www.w3.org/1999/xlink" x="0px" y="0px"
	 viewBox="0 0 32 32" style="enable-background:new 0 0 32 32;" xml:space="preserve">
<style type="text/css">
	.st0{fill:none;stroke:#000000;stroke-width:2;stroke-miterlimit:10;}
	.st1{fill:none;stroke:#000000;stroke-width:2;stroke-linejoin:round;stroke-miterlimit:10;}
	.st2{fill:none;stroke:#000000;stroke-width:2;stroke-linecap:round;stroke-linejoin:round;stroke-miterlimit:10;}
	.st3{fill:none;stroke:#000000;stroke-width:2;stroke-linecap:round;stroke-miterlimit:10;}
	.st4{fill:none;stroke:#000000;stroke-width:2;stroke-linejoin:round;stroke-miterlimit:10;stroke-dasharray:3;}
</style>
<path class="st1" d="M14.5,22h-1.9c-0.8-1.8-2.5-3-4.6-3c-2.8,0-5,2.2-5,5s2.2,5,5,5c0.1,0,0.2,0,0.3,0c0.1,0,0.2,0,0.2,0h6
	c1.9,0,3.5-1.6,3.5-3.5S16.4,22,14.5,22z"/>
<path class="st2" d="M8,19c2.8,0,5,2.2,5,5"/>
<path class="st1" d="M26.9,6.8h-1.2C25.3,5.7,24.2,5,23,5c-1.7,0-3,1.3-3,3s1.3,3,3,3c0.1,0,0.1,0,0.2,0c0.1,0,0.1,0,0.1,0h3.6
	c1.2,0,2.1-0.9,2.1-2.1S28.1,6.8,26.9,6.8z"/>
<path class="st2" d="M23,5c1.7,0,3,1.3,3,3"/>
<path class="st1" d="M17.7,27c6.3-0.3,11.3-5.5,11.3-11.9C27.5,18,24.5,20,21,20c-5,0-9-4-9-9c0-3.5,2-6.5,4.9-8
	C10.3,3.1,5,8.4,5,15c0,1.6,0.3,3.1,0.9,4.5"/>
</svg>
