<?xml version="1.0" encoding="utf-8"?>
<!-- Generator: Adobe Illustrator 23.0.3, SVG Export Plug-In . SVG Version: 6.00 Build 0)  -->
<svg version="1.1" id="Icons" xmlns="http://www.w3.org/2000/svg" xmlns:xlink="http://www.w3.org/1999/xlink" x="0px" y="0px"
	 viewBox="0 0 32 32" style="enable-background:new 0 0 32 32;" xml:space="preserve">
<style type="text/css">
	.st0{fill:none;stroke:#000000;stroke-width:2;stroke-miterlimit:10;}
	.st1{fill:none;stroke:#000000;stroke-width:2;stroke-linejoin:round;stroke-miterlimit:10;}
	.st2{fill:none;stroke:#000000;stroke-width:2;stroke-linecap:round;stroke-linejoin:round;stroke-miterlimit:10;}
	.st3{fill:none;stroke:#000000;stroke-width:2;stroke-linecap:round;stroke-miterlimit:10;}
	.st4{fill:none;stroke:#000000;stroke-width:2;stroke-linejoin:round;stroke-miterlimit:10;stroke-dasharray:3;}
</style>
<path class="st2" d="M16,8L3,21h20v0c0-5-2.4-9.7-6.5-12.6L16,8z"/>
<path class="st2" d="M29,21L29,21c0-6.6-3.2-12.7-8.5-16.5L19.9,4"/>
<circle class="st2" cx="17" cy="16" r="2"/>
<line class="st1" x1="11" y1="17" x2="11" y2="19"/>
<path class="st1" d="M26.5,18c-1.9-0.3-3.5,1.1-3.5,3H3v3h7.5c1.4,0,2.5,1.1,2.5,2.5v0c0,0.8,0.7,1.5,1.5,1.5h0
	c0.8,0,1.5-0.7,1.5-1.5v0c0-1.4,1.1-2.5,2.5-2.5H26c1.8,0,3.3-1.6,3-3.5C28.7,19.2,27.8,18.3,26.5,18z"/>
</svg>
