<?xml version="1.0" encoding="utf-8"?>
<!-- Generator: Adobe Illustrator 23.0.3, SVG Export Plug-In . SVG Version: 6.00 Build 0)  -->
<svg version="1.1" id="Icons" xmlns="http://www.w3.org/2000/svg" xmlns:xlink="http://www.w3.org/1999/xlink" x="0px" y="0px"
	 viewBox="0 0 32 32" style="enable-background:new 0 0 32 32;" xml:space="preserve">
<style type="text/css">
	.st0{fill:none;stroke:#000000;stroke-width:2;stroke-miterlimit:10;}
	.st1{fill:none;stroke:#000000;stroke-width:2;stroke-linejoin:round;stroke-miterlimit:10;}
	.st2{fill:none;stroke:#000000;stroke-width:2;stroke-linecap:round;stroke-linejoin:round;stroke-miterlimit:10;}
	.st3{fill:none;stroke:#000000;stroke-width:2;stroke-linecap:round;stroke-miterlimit:10;}
	.st4{fill:none;stroke:#000000;stroke-width:2;stroke-linejoin:round;stroke-miterlimit:10;stroke-dasharray:3;}
</style>
<path class="st1" d="M22.3,19.3c0,0-1.7,0-2.8-0.8c-2.1-1.4-2.2-3.6-0.6-5.4s5.1-2.6,5.1-2.6V7l-1.2,0.4C17,9.1,11.8,12.7,8,17.6
	l0,0"/>
<path class="st1" d="M20.1,12.5c1.2,1.3,2.1,3,2.4,5.1C23.1,21,27.3,29,18.2,29C13.3,29,5,24.6,5,17.6c0-4.4,3.1-7.9,7.9-7.9
	c1.3,0,2.5,0.2,3.6,0.6"/>
<path class="st1" d="M7,12.3V8.8C7,7.8,7.8,7,8.8,7H12v3.1"/>
<path class="st1" d="M12,10V4.5C12,3.7,12.7,3,13.5,3h0C14.3,3,15,3.7,15,4.5V10"/>
<path class="st1" d="M15,10V6.5C15,5.7,15.7,5,16.5,5h0C17.3,5,18,5.7,18,6.5V9"/>
</svg>
