<?xml version="1.0" encoding="utf-8"?>
<!-- Generator: Adobe Illustrator 23.0.3, SVG Export Plug-In . SVG Version: 6.00 Build 0)  -->
<svg version="1.1" id="Icons" xmlns="http://www.w3.org/2000/svg" xmlns:xlink="http://www.w3.org/1999/xlink" x="0px" y="0px"
	 viewBox="0 0 32 32" style="enable-background:new 0 0 32 32;" xml:space="preserve">
<style type="text/css">
	.st0{fill:none;stroke:#000000;stroke-width:2;stroke-miterlimit:10;}
	.st1{fill:none;stroke:#000000;stroke-width:2;stroke-linejoin:round;stroke-miterlimit:10;}
	.st2{fill:none;stroke:#000000;stroke-width:2;stroke-linecap:round;stroke-linejoin:round;stroke-miterlimit:10;}
	.st3{fill:none;stroke:#000000;stroke-width:2;stroke-linecap:round;stroke-miterlimit:10;}
	.st4{fill:none;stroke:#000000;stroke-width:2;stroke-linejoin:round;stroke-miterlimit:10;stroke-dasharray:3;}
</style>
<circle class="st2" cx="16" cy="11" r="5"/>
<path class="st2" d="M14,11c0,1.1,0.9,2,2,2s2-0.9,2-2H14z"/>
<path class="st2" d="M16,23v6h-5V18l-2.5,2.5c-0.8,0.8-2.2,0.8-3,0l0,0c-0.8-0.8-0.8-2.2,0-3l1.4-1.4C8.2,14.8,10.1,14,12,14h0"/>
<path class="st2" d="M16,29h5V18l2.5,2.5c0.8,0.8,2.2,0.8,3,0l0,0c0.8-0.8,0.8-2.2,0-3l-1.4-1.4C23.8,14.8,21.9,14,20,14h0"/>
<path class="st2" d="M8,10V5c0-1.1,0.9-2,2-2h12c1.1,0,2,0.9,2,2v5"/>
</svg>
