<?xml version="1.0" encoding="utf-8"?>
<!-- Generator: Adobe Illustrator 23.0.3, SVG Export Plug-In . SVG Version: 6.00 Build 0)  -->
<svg version="1.1" id="Icons" xmlns="http://www.w3.org/2000/svg" xmlns:xlink="http://www.w3.org/1999/xlink" x="0px" y="0px"
	 viewBox="0 0 32 32" style="enable-background:new 0 0 32 32;" xml:space="preserve">
<style type="text/css">
	.st0{fill:none;stroke:#000000;stroke-width:2;stroke-miterlimit:10;}
	.st1{fill:none;stroke:#000000;stroke-width:2;stroke-linejoin:round;stroke-miterlimit:10;}
	.st2{fill:none;stroke:#000000;stroke-width:2;stroke-linecap:round;stroke-linejoin:round;stroke-miterlimit:10;}
	.st3{fill:none;stroke:#000000;stroke-width:2;stroke-linecap:round;stroke-miterlimit:10;}
	.st4{fill:none;stroke:#000000;stroke-width:2;stroke-linejoin:round;stroke-miterlimit:10;stroke-dasharray:3;}
</style>
<line class="st1" x1="13" y1="28.1" x2="19" y2="28.1"/>
<path class="st1" d="M16,10l-6,8.6c1.6,1.7,2.8,3.9,3.4,6.4H16h2.6c0.6-2.5,1.8-4.8,3.4-6.4L16,10z"/>
<line class="st1" x1="16" y1="19" x2="16" y2="10.3"/>
<path class="st1" d="M4,17C4,10.4,9.4,5,16,5s12,5.4,12,12"/>
<rect x="3" y="16" class="st1" width="2" height="2"/>
<rect x="27" y="16" class="st1" width="2" height="2"/>
<rect x="15" y="4" class="st1" width="2" height="2"/>
<circle class="st1" cx="4" cy="5" r="1"/>
<circle class="st1" cx="28" cy="5" r="1"/>
<line class="st1" x1="4" y1="5" x2="28" y2="5"/>
</svg>
