<?xml version="1.0" encoding="utf-8"?>
<!-- Generator: Adobe Illustrator 23.0.3, SVG Export Plug-In . SVG Version: 6.00 Build 0)  -->
<svg version="1.1" id="Icons" xmlns="http://www.w3.org/2000/svg" xmlns:xlink="http://www.w3.org/1999/xlink" x="0px" y="0px"
	 viewBox="0 0 32 32" style="enable-background:new 0 0 32 32;" xml:space="preserve">
<style type="text/css">
	.st0{fill:none;stroke:#000000;stroke-width:2;stroke-miterlimit:10;}
	.st1{fill:none;stroke:#000000;stroke-width:2;stroke-linejoin:round;stroke-miterlimit:10;}
	.st2{fill:none;stroke:#000000;stroke-width:2;stroke-linecap:round;stroke-linejoin:round;stroke-miterlimit:10;}
	.st3{fill:none;stroke:#000000;stroke-width:2;stroke-linecap:round;stroke-miterlimit:10;}
	.st4{fill:none;stroke:#000000;stroke-width:2;stroke-linejoin:round;stroke-miterlimit:10;stroke-dasharray:3;}
</style>
<path class="st1" d="M26,21.5L25,20c-1.6-2.4-2.4-5.3-2.4-8.2c0-3.1-2-5.7-4.7-6.5C17.6,4.5,16.8,4,16,4s-1.6,0.5-1.9,1.3
	c-2.7,0.8-4.7,3.4-4.7,6.5c0,2.9-0.8,5.8-2.4,8.2l-1,1.5c-0.4,0.7,0,1.5,0.8,1.5h18.3C25.9,23,26.4,22.1,26,21.5z"/>
<path class="st1" d="M19,26c0,1.7-1.3,3-3,3s-3-1.3-3-3"/>
</svg>
