<?xml version="1.0" encoding="utf-8"?>
<!-- Generator: Adobe Illustrator 23.0.3, SVG Export Plug-In . SVG Version: 6.00 Build 0)  -->
<svg version="1.1" id="Icons" xmlns="http://www.w3.org/2000/svg" xmlns:xlink="http://www.w3.org/1999/xlink" x="0px" y="0px"
	 viewBox="0 0 32 32" style="enable-background:new 0 0 32 32;" xml:space="preserve">
<style type="text/css">
	.st0{fill:none;stroke:#000000;stroke-width:2;stroke-miterlimit:10;}
	.st1{fill:none;stroke:#000000;stroke-width:2;stroke-linejoin:round;stroke-miterlimit:10;}
	.st2{fill:none;stroke:#000000;stroke-width:2;stroke-linecap:round;stroke-linejoin:round;stroke-miterlimit:10;}
	.st3{fill:none;stroke:#000000;stroke-width:2;stroke-linecap:round;stroke-miterlimit:10;}
	.st4{fill:none;stroke:#000000;stroke-width:2;stroke-linejoin:round;stroke-miterlimit:10;stroke-dasharray:3;}
</style>
<circle class="st1" cx="10" cy="21" r="2"/>
<path class="st1" d="M4,16v10h12.1c0-0.2-0.1-0.3-0.1-0.5c0-1.4,1.1-2.5,2.5-2.5s2.5,1.1,2.5,2.5c0,0.2,0,0.3-0.1,0.5H28V16"/>
<path class="st1" d="M28,16L28,16c0-5.5-4.5-10-10-10h0L4,16h14c0,1.7,1.3,3,3,3s3-1.3,3-3s-1.3-3-3-3c-0.9,0-1.8,0.4-2.3,1.1"/>
</svg>
