<?xml version="1.0" encoding="utf-8"?>
<!-- Generator: Adobe Illustrator 23.0.3, SVG Export Plug-In . SVG Version: 6.00 Build 0)  -->
<svg version="1.1" id="Icons" xmlns="http://www.w3.org/2000/svg" xmlns:xlink="http://www.w3.org/1999/xlink" x="0px" y="0px"
	 viewBox="0 0 32 32" style="enable-background:new 0 0 32 32;" xml:space="preserve">
<style type="text/css">
	.st0{fill:none;stroke:#000000;stroke-width:2;stroke-miterlimit:10;}
	.st1{fill:none;stroke:#000000;stroke-width:2;stroke-linejoin:round;stroke-miterlimit:10;}
	.st2{fill:none;stroke:#000000;stroke-width:2;stroke-linecap:round;stroke-linejoin:round;stroke-miterlimit:10;}
	.st3{fill:none;stroke:#000000;stroke-width:2;stroke-linecap:round;stroke-miterlimit:10;}
	.st4{fill:none;stroke:#000000;stroke-width:2;stroke-linejoin:round;stroke-miterlimit:10;stroke-dasharray:3;}
</style>
<path class="st1" d="M16,3C9,3,4.9,6.5,4.2,11.4c-0.7,4.6,0.4,9.2,3,12.9c1.3,1.9,2.9,3.4,4.8,4.6l0,0c2.5,1.5,5.5,1.5,8,0l0,0
	c1.9-1.2,3.5-2.7,4.8-4.6c2.6-3.7,3.7-8.4,3-12.9C27.1,6.5,23,3,16,3z"/>
<ellipse transform="matrix(0.7071 -0.7071 0.7071 0.7071 -10.5694 13.089)" class="st1" cx="10.5" cy="19.3" rx="2" ry="3.7"/>
<ellipse transform="matrix(0.7071 -0.7071 0.7071 0.7071 -7.3476 20.8672)" class="st1" cx="21.5" cy="19.3" rx="3.7" ry="2"/>
</svg>
