<?xml version="1.0" encoding="utf-8"?>
<!-- Generator: Adobe Illustrator 23.0.3, SVG Export Plug-In . SVG Version: 6.00 Build 0)  -->
<svg version="1.1" id="Icons" xmlns="http://www.w3.org/2000/svg" xmlns:xlink="http://www.w3.org/1999/xlink" x="0px" y="0px"
	 viewBox="0 0 32 32" style="enable-background:new 0 0 32 32;" xml:space="preserve">
<style type="text/css">
	.st0{fill:none;stroke:#000000;stroke-width:2;stroke-miterlimit:10;}
	.st1{fill:none;stroke:#000000;stroke-width:2;stroke-linejoin:round;stroke-miterlimit:10;}
	.st2{fill:none;stroke:#000000;stroke-width:2;stroke-linecap:round;stroke-linejoin:round;stroke-miterlimit:10;}
	.st3{fill:none;stroke:#000000;stroke-width:2;stroke-linecap:round;stroke-miterlimit:10;}
	.st4{fill:none;stroke:#000000;stroke-width:2;stroke-linejoin:round;stroke-miterlimit:10;stroke-dasharray:3;}
</style>
<path class="st1" d="M27,23.2V8.8c1.2-0.4,2-1.5,2-2.8c0-1.7-1.3-3-3-3c-1.3,0-2.4,0.8-2.8,2H8.8C8.4,3.8,7.3,3,6,3C4.3,3,3,4.3,3,6
	c0,1.3,0.8,2.4,2,2.8v14.4c-1.2,0.4-2,1.5-2,2.8c0,1.7,1.3,3,3,3c1.3,0,2.4-0.8,2.8-2h14.4c0.4,1.2,1.5,2,2.8,2c1.7,0,3-1.3,3-3
	C29,24.7,28.2,23.6,27,23.2z"/>
<rect x="9" y="9" class="st1" width="14" height="14"/>
<circle class="st1" cx="13" cy="13" r="1"/>
<polyline class="st1" points="9,20 16,16 20,19 23,17 "/>
</svg>
