<?xml version="1.0" encoding="utf-8"?>
<!-- Generator: Adobe Illustrator 23.0.3, SVG Export Plug-In . SVG Version: 6.00 Build 0)  -->
<svg version="1.1" id="Icons" xmlns="http://www.w3.org/2000/svg" xmlns:xlink="http://www.w3.org/1999/xlink" x="0px" y="0px"
	 viewBox="0 0 32 32" style="enable-background:new 0 0 32 32;" xml:space="preserve">
<style type="text/css">
	.st0{fill:none;stroke:#000000;stroke-width:2;stroke-miterlimit:10;}
	.st1{fill:none;stroke:#000000;stroke-width:2;stroke-linejoin:round;stroke-miterlimit:10;}
	.st2{fill:none;stroke:#000000;stroke-width:2;stroke-linecap:round;stroke-linejoin:round;stroke-miterlimit:10;}
	.st3{fill:none;stroke:#000000;stroke-width:2;stroke-linecap:round;stroke-miterlimit:10;}
	.st4{fill:none;stroke:#000000;stroke-width:2;stroke-linejoin:round;stroke-miterlimit:10;stroke-dasharray:3;}
</style>
<circle class="st0" cx="18" cy="18" r="3"/>
<path class="st0" d="M23.2,15c1.6,0.1,2.8,1.4,2.8,3c0,1.7-1.3,3-3,3c-1,0-1.9-0.5-2.5-1.3"/>
<path class="st0" d="M23.2,21c0.7,1.4,0.2,3.1-1.2,3.9c-1.4,0.8-3.3,0.3-4.1-1.1c-0.5-0.9-0.5-1.9-0.1-2.8"/>
<path class="st0" d="M18,24c-0.9,1.3-2.6,1.7-4,0.9c-1.4-0.8-1.9-2.7-1.1-4.1c0.5-0.9,1.4-1.4,2.4-1.5"/>
<path class="st0" d="M12.8,21c-1.6-0.1-2.8-1.4-2.8-3c0-1.7,1.3-3,3-3c1,0,1.9,0.5,2.5,1.3"/>
<path class="st0" d="M12.8,15c-0.7-1.4-0.2-3.1,1.2-3.9c1.4-0.8,3.3-0.3,4.1,1.1c0.5,0.9,0.5,1.9,0.1,2.8"/>
<path class="st0" d="M18,12c0.9-1.3,2.6-1.7,4-0.9c1.4,0.8,1.9,2.7,1.1,4.1c-0.5,0.9-1.4,1.4-2.4,1.5"/>
<path class="st0" d="M20.9,25.3C21,25.5,21,25.8,21,26c0,1.7-1.3,3-3,3s-3-1.3-3-3c0-0.2,0-0.5,0.1-0.7"/>
<path class="st0" d="M18,12c0-3.9,3.1-7,7-7"/>
<path class="st0" d="M25,5c1.7,0,3,0.9,3,2s-1.3,2-3,2c-0.9,0-1.7-0.3-2.3-0.7"/>
<path class="st1" d="M16.5,4.9C15.7,3.7,14.7,3,14.7,3s-1.3,1-2.2,2.4c-1.7-1.5-4.8-1.3-4.8-1.3s-0.5,2,0,3.7C5.6,8.3,4,10.5,4,10.5
	s1.7,2.4,3.9,2.8c-0.3,0.5-0.5,1.1-0.6,1.7"/>
</svg>
