<?xml version="1.0" encoding="utf-8"?>
<!-- Generator: Adobe Illustrator 23.0.3, SVG Export Plug-In . SVG Version: 6.00 Build 0)  -->
<svg version="1.1" id="Icons" xmlns="http://www.w3.org/2000/svg" xmlns:xlink="http://www.w3.org/1999/xlink" x="0px" y="0px"
	 viewBox="0 0 32 32" style="enable-background:new 0 0 32 32;" xml:space="preserve">
<style type="text/css">
	.st0{fill:none;stroke:#000000;stroke-width:2;stroke-miterlimit:10;}
	.st1{fill:none;stroke:#000000;stroke-width:2;stroke-linejoin:round;stroke-miterlimit:10;}
	.st2{fill:none;stroke:#000000;stroke-width:2;stroke-linecap:round;stroke-linejoin:round;stroke-miterlimit:10;}
	.st3{fill:none;stroke:#000000;stroke-width:2;stroke-linecap:round;stroke-miterlimit:10;}
	.st4{fill:none;stroke:#000000;stroke-width:2;stroke-linejoin:round;stroke-miterlimit:10;stroke-dasharray:3;}
</style>
<path class="st2" d="M20,19.4V13c0-0.8-0.7-1.5-1.5-1.5h0c-0.8,0-1.5,0.7-1.5,1.5v9.7l-2.2-3.9c-0.4-0.7-1.4-0.9-2.1-0.5l0,0
	c-0.6,0.4-0.8,1.1-0.6,1.7l0,0c1.2,3.2,3,6.2,5.3,8.9"/>
<path class="st2" d="M20,19.4v-7.9c0-0.8,0.7-1.5,1.5-1.5h0c0.8,0,1.5,0.7,1.5,1.5v7.9"/>
<path class="st2" d="M23,19.4V13c0-0.8,0.7-1.5,1.5-1.5h0c0.8,0,1.5,0.7,1.5,1.5v6.4"/>
<path class="st2" d="M26,19.4v-5c0-0.8,0.7-1.5,1.5-1.5h0c0.8,0,1.5,0.7,1.5,1.5v6v0c0,2.9-0.6,5.9-1.8,8.6"/>
<path class="st2" d="M15,27C8.4,27,3,21.6,3,15S8.4,3,15,3c6,0,11,4.4,11.9,10.1"/>
<path class="st2" d="M13.5,18.1c-1.1-0.6-1.9-1.7-1.9-3.1c0-1.9,1.5-3.4,3.4-3.4c0.8,0,1.5,0.3,2.1,0.7"/>
<path class="st2" d="M15,7c-4.4,0-8,3.6-8,8"/>
</svg>
