<?xml version="1.0" encoding="utf-8"?>
<!-- Generator: Adobe Illustrator 23.0.3, SVG Export Plug-In . SVG Version: 6.00 Build 0)  -->
<svg version="1.1" id="Icons" xmlns="http://www.w3.org/2000/svg" xmlns:xlink="http://www.w3.org/1999/xlink" x="0px" y="0px"
	 viewBox="0 0 32 32" style="enable-background:new 0 0 32 32;" xml:space="preserve">
<style type="text/css">
	.st0{fill:none;stroke:#000000;stroke-width:2;stroke-miterlimit:10;}
	.st1{fill:none;stroke:#000000;stroke-width:2;stroke-linejoin:round;stroke-miterlimit:10;}
	.st2{fill:none;stroke:#000000;stroke-width:2;stroke-linecap:round;stroke-linejoin:round;stroke-miterlimit:10;}
	.st3{fill:none;stroke:#000000;stroke-width:2;stroke-linecap:round;stroke-miterlimit:10;}
	.st4{fill:none;stroke:#000000;stroke-width:2;stroke-linejoin:round;stroke-miterlimit:10;stroke-dasharray:3;}
</style>
<ellipse class="st1" cx="13" cy="16" rx="10" ry="13"/>
<ellipse class="st1" cx="13" cy="16" rx="6" ry="8"/>
<path class="st1" d="M13,29h1c6.6,0,12.1-4.2,13.6-9.9c0.2-0.7,0.6-1.3,1-1.9c0.3-0.3,0.4-0.8,0.4-1.2c0-0.5-0.2-0.9-0.4-1.2
	c-0.4-0.6-0.8-1.2-1-1.9C26.1,7.2,20.6,3,14,3h-1"/>
<line class="st2" x1="13" y1="8" x2="13" y2="24"/>
<line class="st2" x1="8" y1="12" x2="18" y2="20"/>
<line class="st2" x1="7.8" y1="19.8" x2="18.2" y2="12.2"/>
</svg>
