<?xml version="1.0" encoding="utf-8"?>
<!-- Generator: Adobe Illustrator 23.0.3, SVG Export Plug-In . SVG Version: 6.00 Build 0)  -->
<svg version="1.1" id="Icons" xmlns="http://www.w3.org/2000/svg" xmlns:xlink="http://www.w3.org/1999/xlink" x="0px" y="0px"
	 viewBox="0 0 32 32" style="enable-background:new 0 0 32 32;" xml:space="preserve">
<style type="text/css">
	.st0{fill:none;stroke:#000000;stroke-width:2;stroke-miterlimit:10;}
	.st1{fill:none;stroke:#000000;stroke-width:2;stroke-linejoin:round;stroke-miterlimit:10;}
	.st2{fill:none;stroke:#000000;stroke-width:2;stroke-linecap:round;stroke-linejoin:round;stroke-miterlimit:10;}
	.st3{fill:none;stroke:#000000;stroke-width:2;stroke-linecap:round;stroke-miterlimit:10;}
	.st4{fill:none;stroke:#000000;stroke-width:2;stroke-linejoin:round;stroke-miterlimit:10;stroke-dasharray:3;}
</style>
<rect x="3" y="9" class="st1" width="26" height="6"/>
<rect x="6" y="15" class="st1" width="20" height="14"/>
<path class="st1" d="M16,9h-4c-1.7,0-3-1.3-3-3v0c0-1.7,1.3-3,3-3h0c2.2,0,4,1.8,4,4V9z"/>
<path class="st1" d="M16,9h4c1.7,0,3-1.3,3-3v0c0-1.7-1.3-3-3-3h0c-2.2,0-4,1.8-4,4V9z"/>
<rect x="12" y="9" class="st1" width="8" height="6"/>
<rect x="13" y="15" class="st1" width="6" height="14"/>
</svg>
