<?xml version="1.0" encoding="utf-8"?>
<!-- Generator: Adobe Illustrator 23.0.3, SVG Export Plug-In . SVG Version: 6.00 Build 0)  -->
<svg version="1.1" id="Icons" xmlns="http://www.w3.org/2000/svg" xmlns:xlink="http://www.w3.org/1999/xlink" x="0px" y="0px"
	 viewBox="0 0 32 32" style="enable-background:new 0 0 32 32;" xml:space="preserve">
<style type="text/css">
	.st0{fill:none;stroke:#000000;stroke-width:2;stroke-miterlimit:10;}
	.st1{fill:none;stroke:#000000;stroke-width:2;stroke-linejoin:round;stroke-miterlimit:10;}
	.st2{fill:none;stroke:#000000;stroke-width:2;stroke-linecap:round;stroke-linejoin:round;stroke-miterlimit:10;}
	.st3{fill:none;stroke:#000000;stroke-width:2;stroke-linecap:round;stroke-miterlimit:10;}
	.st4{fill:none;stroke:#000000;stroke-width:2;stroke-linejoin:round;stroke-miterlimit:10;stroke-dasharray:3;}
</style>
<path class="st1" d="M23,6h6v2.7c0,4-3.2,7.3-7.3,7.3h0"/>
<path class="st1" d="M9,6H3v2.7c0,4,3.2,7.3,7.3,7.3h0"/>
<path class="st1" d="M22,28H10v-3c0-1.1,0.9-2,2-2h8c1.1,0,2,0.9,2,2V28z"/>
<path class="st1" d="M18,23v-4.3c2.9-0.9,5-3.5,5-6.7V4H9v8c0,3.2,2.1,5.8,5,6.7V23"/>
</svg>
