<?xml version="1.0" encoding="utf-8"?>
<!-- Generator: Adobe Illustrator 23.0.3, SVG Export Plug-In . SVG Version: 6.00 Build 0)  -->
<svg version="1.1" id="Icons" xmlns="http://www.w3.org/2000/svg" xmlns:xlink="http://www.w3.org/1999/xlink" x="0px" y="0px"
	 viewBox="0 0 32 32" style="enable-background:new 0 0 32 32;" xml:space="preserve">
<style type="text/css">
	.st0{fill:none;stroke:#000000;stroke-width:2;stroke-miterlimit:10;}
	.st1{fill:none;stroke:#000000;stroke-width:2;stroke-linejoin:round;stroke-miterlimit:10;}
	.st2{fill:none;stroke:#000000;stroke-width:2;stroke-linecap:round;stroke-linejoin:round;stroke-miterlimit:10;}
	.st3{fill:none;stroke:#000000;stroke-width:2;stroke-linecap:round;stroke-miterlimit:10;}
	.st4{fill:none;stroke:#000000;stroke-width:2;stroke-linejoin:round;stroke-miterlimit:10;stroke-dasharray:3;}
</style>
<path class="st2" d="M22,14c0,2.2-1.2,4.1-3,5.2v0c0,1.7,1.1,3.2,2.7,3.7l0,0c2.1,0.7,3.6,2.4,4,4.6l0.2,0.9
	c0.1,0.3-0.2,0.7-0.5,0.7H6.7c-0.3,0-0.6-0.3-0.5-0.7l0.2-0.9c0.4-2.1,2-3.9,4-4.6l0,0c1.6-0.5,2.7-2,2.7-3.7v0
	c-1.8-1.1-3-3.2-3-5.4V9"/>
<path class="st1" d="M8.3,24.1C6.8,21,6,17.4,6,14C6,6.3,10.5,3,16,3s10,3.3,10,11c0,3.4-0.8,7-2.3,10.1"/>
<path class="st1" d="M26.1,13.5C24.8,13.8,23.4,14,22,14c-6.9,0-12.6-3.8-13-8.5"/>
</svg>
