<?xml version="1.0" encoding="utf-8"?>
<!-- Generator: Adobe Illustrator 23.0.3, SVG Export Plug-In . SVG Version: 6.00 Build 0)  -->
<svg version="1.1" id="Icons" xmlns="http://www.w3.org/2000/svg" xmlns:xlink="http://www.w3.org/1999/xlink" x="0px" y="0px"
	 viewBox="0 0 32 32" style="enable-background:new 0 0 32 32;" xml:space="preserve">
<style type="text/css">
	.st0{fill:none;stroke:#000000;stroke-width:2;stroke-miterlimit:10;}
	.st1{fill:none;stroke:#000000;stroke-width:2;stroke-linejoin:round;stroke-miterlimit:10;}
	.st2{fill:none;stroke:#000000;stroke-width:2;stroke-linecap:round;stroke-linejoin:round;stroke-miterlimit:10;}
	.st3{fill:none;stroke:#000000;stroke-width:2;stroke-linecap:round;stroke-miterlimit:10;}
	.st4{fill:none;stroke:#000000;stroke-width:2;stroke-linejoin:round;stroke-miterlimit:10;stroke-dasharray:3;}
</style>
<circle class="st1" cx="5.9" cy="7.4" r="3"/>
<circle class="st1" cx="5.9" cy="16.6" r="3"/>
<path class="st1" d="M8.7,16.6l9.9-9.9l0,0c-1.6-1.6-4.1-1.6-5.7,0l-7.1,7.1"/>
<path class="st1" d="M13.3,12l5.3,5.3l0,0c-1.6,1.6-4.1,1.6-5.7,0"/>
<line class="st4" x1="17" y1="12" x2="20" y2="12"/>
<line class="st4" x1="22" y1="12" x2="25" y2="12"/>
<line class="st4" x1="17" y1="28" x2="20" y2="28"/>
<line class="st4" x1="12" y1="28" x2="15" y2="28"/>
<line class="st4" x1="22" y1="28" x2="25" y2="28"/>
<line class="st4" x1="29" y1="19" x2="29" y2="16"/>
<line class="st4" x1="8" y1="24" x2="8" y2="21"/>
<line class="st4" x1="29" y1="24" x2="29" y2="21"/>
<line class="st4" x1="27" y1="12" x2="30" y2="12"/>
<line class="st4" x1="29" y1="14" x2="29" y2="12"/>
<line class="st4" x1="10" y1="28" x2="7" y2="28"/>
<line class="st4" x1="8" y1="26" x2="8" y2="28"/>
<line class="st4" x1="29" y1="26" x2="29" y2="29"/>
<line class="st4" x1="27" y1="28" x2="29" y2="28"/>
<path class="st1" d="M25,18.5c0-0.8-0.7-1.5-1.5-1.5h-1c-0.8,0-1.5,0.7-1.5,1.5v0c0,0.8,0.7,1.5,1.5,1.5h1"/>
<path class="st1" d="M22.5,20h1c0.8,0,1.5,0.7,1.5,1.5v0c0,0.8-0.7,1.5-1.5,1.5h-1c-0.8,0-1.5-0.7-1.5-1.5"/>
<line class="st1" x1="23" y1="15" x2="23" y2="17"/>
<line class="st1" x1="23" y1="25" x2="23" y2="23"/>
</svg>
