<?xml version="1.0" encoding="utf-8"?>
<!-- Generator: Adobe Illustrator 23.0.3, SVG Export Plug-In . SVG Version: 6.00 Build 0)  -->
<svg version="1.1" id="Icons" xmlns="http://www.w3.org/2000/svg" xmlns:xlink="http://www.w3.org/1999/xlink" x="0px" y="0px"
	 viewBox="0 0 32 32" style="enable-background:new 0 0 32 32;" xml:space="preserve">
<style type="text/css">
	.st0{fill:none;stroke:#000000;stroke-width:2;stroke-miterlimit:10;}
	.st1{fill:none;stroke:#000000;stroke-width:2;stroke-linejoin:round;stroke-miterlimit:10;}
	.st2{fill:none;stroke:#000000;stroke-width:2;stroke-linecap:round;stroke-linejoin:round;stroke-miterlimit:10;}
	.st3{fill:none;stroke:#000000;stroke-width:2;stroke-linecap:round;stroke-miterlimit:10;}
	.st4{fill:none;stroke:#000000;stroke-width:2;stroke-linejoin:round;stroke-miterlimit:10;stroke-dasharray:3;}
</style>
<path class="st1" d="M17.6,18.8c-0.4,0.4-0.8,1-1.1,1.5c-1.8-1.4-3.4-3.1-4.8-4.8c0.6-0.3,1.1-0.7,1.5-1.1c2-2,1.3-4.6-0.7-6.6
	S8,5,5.9,7.1s-2.3,5.7-0.7,8c2.9,4.4,7.3,8.8,11.7,11.7c2.4,1.6,6,1.3,8-0.7s1.3-4.6-0.7-6.6S19.6,16.7,17.6,18.8z"/>
<path class="st2" d="M27.9,13.9c0-5.5-4.4-9.9-9.9-9.9"/>
<path class="st2" d="M23,13.7c0-2.6-2.2-4.7-4.9-4.7"/>
</svg>
