<?xml version="1.0" encoding="utf-8"?>
<!-- Generator: Adobe Illustrator 23.0.3, SVG Export Plug-In . SVG Version: 6.00 Build 0)  -->
<svg version="1.1" id="Icons" xmlns="http://www.w3.org/2000/svg" xmlns:xlink="http://www.w3.org/1999/xlink" x="0px" y="0px"
	 viewBox="0 0 32 32" style="enable-background:new 0 0 32 32;" xml:space="preserve">
<style type="text/css">
	.st0{fill:none;stroke:#000000;stroke-width:2;stroke-miterlimit:10;}
	.st1{fill:none;stroke:#000000;stroke-width:2;stroke-linejoin:round;stroke-miterlimit:10;}
	.st2{fill:none;stroke:#000000;stroke-width:2;stroke-linecap:round;stroke-linejoin:round;stroke-miterlimit:10;}
	.st3{fill:none;stroke:#000000;stroke-width:2;stroke-linecap:round;stroke-miterlimit:10;}
	.st4{fill:none;stroke:#000000;stroke-width:2;stroke-linejoin:round;stroke-miterlimit:10;stroke-dasharray:3;}
</style>
<path class="st1" d="M25.2,20.9l-0.7-0.7l3.5-3.5l-4.2-4.2l-0.7,0.7c-1.2,1.2-3.1,1.2-4.2,0c-1.2-1.2-1.2-3.1,0-4.2l0.7-0.7L15.3,4
	l-3.5,3.5l-0.7-0.7C9.9,5.6,8,5.6,6.8,6.8c-1.2,1.2-1.2,3.1,0,4.2l0.7,0.7L4,15.3l4.2,4.2l0.7-0.7c1.2-1.2,3.1-1.2,4.2,0
	c1.2,1.2,1.2,3.1,0,4.2l-0.7,0.7l4.2,4.2l3.5-3.5l0.7,0.7c1.2,1.2,3.1,1.2,4.2,0C26.4,24,26.4,22.1,25.2,20.9z"/>
</svg>
