<?xml version="1.0" encoding="utf-8"?>
<!-- Generator: Adobe Illustrator 23.0.3, SVG Export Plug-In . SVG Version: 6.00 Build 0)  -->
<svg version="1.1" id="Icons" xmlns="http://www.w3.org/2000/svg" xmlns:xlink="http://www.w3.org/1999/xlink" x="0px" y="0px"
	 viewBox="0 0 32 32" style="enable-background:new 0 0 32 32;" xml:space="preserve">
<style type="text/css">
	.st0{fill:none;stroke:#000000;stroke-width:2;stroke-miterlimit:10;}
	.st1{fill:none;stroke:#000000;stroke-width:2;stroke-linejoin:round;stroke-miterlimit:10;}
	.st2{fill:none;stroke:#000000;stroke-width:2;stroke-linecap:round;stroke-linejoin:round;stroke-miterlimit:10;}
	.st3{fill:none;stroke:#000000;stroke-width:2;stroke-linecap:round;stroke-miterlimit:10;}
	.st4{fill:none;stroke:#000000;stroke-width:2;stroke-linejoin:round;stroke-miterlimit:10;stroke-dasharray:3;}
</style>
<path class="st2" d="M26.8,12.3c-0.9,0.9-2.2,1.1-3.3,0.7l-3.3,3.3c-1.6,1.6-4.4,1.5-6.2-0.3l0,0l5.9-5.9"/>
<path class="st2" d="M30,6h-9.5c-3.3,0-6.3,2.1-7.5,5.2L12.8,12"/>
<path class="st2" d="M26.3,19.3c1-0.9,1.8-2,2.3-3.3H30"/>
<path class="st2" d="M24,14v10c0,1.1-0.9,2-2,2H5c-1.1,0-2-0.9-2-2V14c0-1.1,0.9-2,2-2h13"/>
<line class="st2" x1="3" y1="16" x2="14" y2="16"/>
<circle class="st2" cx="16" cy="21" r="1"/>
<circle class="st2" cx="19" cy="21" r="1"/>
<line class="st2" x1="7" y1="22" x2="10" y2="22"/>
</svg>
