<?xml version="1.0" encoding="utf-8"?>
<!-- Generator: Adobe Illustrator 23.0.3, SVG Export Plug-In . SVG Version: 6.00 Build 0)  -->
<svg version="1.1" id="Icons" xmlns="http://www.w3.org/2000/svg" xmlns:xlink="http://www.w3.org/1999/xlink" x="0px" y="0px"
	 viewBox="0 0 32 32" style="enable-background:new 0 0 32 32;" xml:space="preserve">
<style type="text/css">
	.st0{fill:none;stroke:#000000;stroke-width:2;stroke-miterlimit:10;}
	.st1{fill:none;stroke:#000000;stroke-width:2;stroke-linejoin:round;stroke-miterlimit:10;}
	.st2{fill:none;stroke:#000000;stroke-width:2;stroke-linecap:round;stroke-linejoin:round;stroke-miterlimit:10;}
	.st3{fill:none;stroke:#000000;stroke-width:2;stroke-linecap:round;stroke-miterlimit:10;}
	.st4{fill:none;stroke:#000000;stroke-width:2;stroke-linejoin:round;stroke-miterlimit:10;stroke-dasharray:3;}
</style>
<path class="st1" d="M28,14.8C28,8.3,22.6,3,16,3S4,8.3,4,14.8c0,1.3,0.2,2.5,0.6,3.6C4.2,19.1,4,19.9,4,20.7c0,2.6,2.1,4.7,4.8,4.7
	c0.4,0,0.8-0.1,1.2-0.2V29h12v-3.7c0.4,0.1,0.8,0.2,1.2,0.2c2.7,0,4.8-2.1,4.8-4.7c0-0.8-0.2-1.6-0.6-2.3C27.8,17.3,28,16.1,28,14.8
	z"/>
<polyline class="st1" points="18,24 16,22 14,24 "/>
<circle class="st1" cx="20.5" cy="18.5" r="2.5"/>
<circle class="st1" cx="11.5" cy="18.5" r="2.5"/>
</svg>
